<svg width="98" height="60" viewBox="0 0 98 60" fill="none" xmlns="http://www.w3.org/2000/svg">
<path d="M24.8463 59.12C20.0463 59.12 15.7796 57.9733 12.0463 55.68C8.36625 53.3867 5.45958 50.08 3.32625 45.76C1.19292 41.44 0.12625 36.1867 0.12625 30C0.12625 23.8133 1.19292 18.56 3.32625 14.24C5.45958 9.92 8.36625 6.61333 12.0463 4.32C15.7796 2.02666 20.0463 0.879996 24.8463 0.879996C29.5929 0.879996 33.8063 2.02666 37.4863 4.32C41.2196 6.61333 44.1529 9.92 46.2863 14.24C48.4196 18.56 49.4863 23.8133 49.4863 30C49.4863 36.1867 48.4196 41.44 46.2863 45.76C44.1529 50.08 41.2196 53.3867 37.4863 55.68C33.8063 57.9733 29.5929 59.12 24.8463 59.12ZM24.8463 46.16C26.5529 46.16 28.0463 45.6267 29.3263 44.56C30.6596 43.4933 31.6996 41.7867 32.4463 39.44C33.1929 37.04 33.5663 33.8933 33.5663 30C33.5663 26.0533 33.1929 22.9067 32.4463 20.56C31.6996 18.2133 30.6596 16.5067 29.3263 15.44C28.0463 14.3733 26.5529 13.84 24.8463 13.84C23.1396 13.84 21.6196 14.3733 20.2863 15.44C19.0063 16.5067 17.9663 18.2133 17.1663 20.56C16.4196 22.9067 16.0463 26.0533 16.0463 30C16.0463 33.8933 16.4196 37.04 17.1663 39.44C17.9663 41.7867 19.0063 43.4933 20.2863 44.56C21.6196 45.6267 23.1396 46.16 24.8463 46.16ZM72.8306 59.12C68.9373 59.12 65.044 58.64 61.1506 57.68C57.3106 56.72 53.9506 55.36 51.0706 53.6L56.8306 41.68C59.0706 43.1733 61.5506 44.32 64.2706 45.12C67.044 45.92 69.7373 46.32 72.3506 46.32C75.0706 46.32 77.2306 45.8133 78.8306 44.8C80.4306 43.7867 81.2306 42.3467 81.2306 40.48C81.2306 38.8267 80.564 37.52 79.2306 36.56C77.8973 35.5467 75.7106 35.04 72.6706 35.04H66.0306V25.04L81.0706 8.8L82.5906 14.24H53.9506V2H94.4306V11.92L79.3906 28.16L71.6306 23.76H75.9506C82.9373 23.76 88.2173 25.3333 91.7906 28.48C95.4173 31.5733 97.2306 35.5733 97.2306 40.48C97.2306 43.68 96.3506 46.6933 94.5906 49.52C92.884 52.3467 90.244 54.6667 86.6706 56.48C83.0973 58.24 78.484 59.12 72.8306 59.12Z" fill="#1178B2" fill-opacity="0.5"/>
</svg>
