<svg width="66" height="36" viewBox="0 0 66 36" fill="none" xmlns="http://www.w3.org/2000/svg">
<path d="M15.464 35.672C12.584 35.672 10.024 34.984 7.784 33.608C5.576 32.232 3.832 30.248 2.552 27.656C1.272 25.064 0.632 21.912 0.632 18.2C0.632 14.488 1.272 11.336 2.552 8.744C3.832 6.152 5.576 4.168 7.784 2.792C10.024 1.416 12.584 0.727998 15.464 0.727998C18.312 0.727998 20.84 1.416 23.048 2.792C25.288 4.168 27.048 6.152 28.328 8.744C29.608 11.336 30.248 14.488 30.248 18.2C30.248 21.912 29.608 25.064 28.328 27.656C27.048 30.248 25.288 32.232 23.048 33.608C20.84 34.984 18.312 35.672 15.464 35.672ZM15.464 27.896C16.488 27.896 17.384 27.576 18.152 26.936C18.952 26.296 19.576 25.272 20.024 23.864C20.472 22.424 20.696 20.536 20.696 18.2C20.696 15.832 20.472 13.944 20.024 12.536C19.576 11.128 18.952 10.104 18.152 9.464C17.384 8.824 16.488 8.504 15.464 8.504C14.44 8.504 13.528 8.824 12.728 9.464C11.96 10.104 11.336 11.128 10.856 12.536C10.408 13.944 10.184 15.832 10.184 18.2C10.184 20.536 10.408 22.424 10.856 23.864C11.336 25.272 11.96 26.296 12.728 26.936C13.528 27.576 14.44 27.896 15.464 27.896ZM33.1554 28.568V22.376L48.2274 1.4H58.0674L43.4274 22.376L38.9154 21.032H65.1714V28.568H33.1554ZM50.9154 35V28.568L51.2034 21.032V15.32H60.1794V35H50.9154Z" fill="#1178B2" fill-opacity="0.5"/>
</svg>
