<svg width="60" height="36" viewBox="0 0 60 36" fill="none" xmlns="http://www.w3.org/2000/svg">
<path d="M15.464 35.672C12.584 35.672 10.024 34.984 7.784 33.608C5.576 32.232 3.832 30.248 2.552 27.656C1.272 25.064 0.632 21.912 0.632 18.2C0.632 14.488 1.272 11.336 2.552 8.744C3.832 6.152 5.576 4.168 7.784 2.792C10.024 1.416 12.584 0.727998 15.464 0.727998C18.312 0.727998 20.84 1.416 23.048 2.792C25.288 4.168 27.048 6.152 28.328 8.744C29.608 11.336 30.248 14.488 30.248 18.2C30.248 21.912 29.608 25.064 28.328 27.656C27.048 30.248 25.288 32.232 23.048 33.608C20.84 34.984 18.312 35.672 15.464 35.672ZM15.464 27.896C16.488 27.896 17.384 27.576 18.152 26.936C18.952 26.296 19.576 25.272 20.024 23.864C20.472 22.424 20.696 20.536 20.696 18.2C20.696 15.832 20.472 13.944 20.024 12.536C19.576 11.128 18.952 10.104 18.152 9.464C17.384 8.824 16.488 8.504 15.464 8.504C14.44 8.504 13.528 8.824 12.728 9.464C11.96 10.104 11.336 11.128 10.856 12.536C10.408 13.944 10.184 15.832 10.184 18.2C10.184 20.536 10.408 22.424 10.856 23.864C11.336 25.272 11.96 26.296 12.728 26.936C13.528 27.576 14.44 27.896 15.464 27.896ZM45.2514 35.672C42.9474 35.672 40.6274 35.384 38.2914 34.808C35.9554 34.232 33.9394 33.416 32.2434 32.36L35.6514 25.208C37.0274 26.104 38.5154 26.792 40.1154 27.272C41.7474 27.752 43.3634 27.992 44.9634 27.992C46.5634 27.992 47.8594 27.688 48.8514 27.08C49.8434 26.44 50.3394 25.56 50.3394 24.44C50.3394 23.768 50.1474 23.176 49.7634 22.664C49.3794 22.12 48.7234 21.72 47.7954 21.464C46.8674 21.176 45.5394 21.032 43.8114 21.032H34.6914L36.3714 1.4H57.7794V8.744H39.7314L44.5794 4.568L43.4754 17.816L38.6274 13.64H46.0674C49.3954 13.64 52.0674 14.12 54.0834 15.08C56.0994 16.008 57.5714 17.272 58.4994 18.872C59.4274 20.44 59.8914 22.216 59.8914 24.2C59.8914 26.184 59.3634 28.056 58.3074 29.816C57.2834 31.544 55.6994 32.952 53.5554 34.04C51.4114 35.128 48.6434 35.672 45.2514 35.672Z" fill="#1178B2" fill-opacity="0.5"/>
</svg>
