<svg width="63" height="36" viewBox="0 0 63 36" fill="none" xmlns="http://www.w3.org/2000/svg">
<path d="M15.464 35.672C12.584 35.672 10.024 34.984 7.784 33.608C5.576 32.232 3.832 30.248 2.552 27.656C1.272 25.064 0.632 21.912 0.632 18.2C0.632 14.488 1.272 11.336 2.552 8.744C3.832 6.152 5.576 4.168 7.784 2.792C10.024 1.416 12.584 0.727998 15.464 0.727998C18.312 0.727998 20.84 1.416 23.048 2.792C25.288 4.168 27.048 6.152 28.328 8.744C29.608 11.336 30.248 14.488 30.248 18.2C30.248 21.912 29.608 25.064 28.328 27.656C27.048 30.248 25.288 32.232 23.048 33.608C20.84 34.984 18.312 35.672 15.464 35.672ZM15.464 27.896C16.488 27.896 17.384 27.576 18.152 26.936C18.952 26.296 19.576 25.272 20.024 23.864C20.472 22.424 20.696 20.536 20.696 18.2C20.696 15.832 20.472 13.944 20.024 12.536C19.576 11.128 18.952 10.104 18.152 9.464C17.384 8.824 16.488 8.504 15.464 8.504C14.44 8.504 13.528 8.824 12.728 9.464C11.96 10.104 11.336 11.128 10.856 12.536C10.408 13.944 10.184 15.832 10.184 18.2C10.184 20.536 10.408 22.424 10.856 23.864C11.336 25.272 11.96 26.296 12.728 26.936C13.528 27.576 14.44 27.896 15.464 27.896ZM49.0434 35.672C45.9074 35.672 43.1714 35.048 40.8354 33.8C38.5314 32.552 36.7234 30.696 35.4114 28.232C34.1314 25.768 33.4914 22.728 33.4914 19.112C33.4914 15.208 34.2434 11.896 35.7474 9.176C37.2834 6.424 39.3794 4.328 42.0354 2.888C44.7234 1.448 47.8274 0.727998 51.3474 0.727998C53.2354 0.727998 55.0434 0.951998 56.7714 1.4C58.5314 1.816 60.0194 2.408 61.2354 3.176L57.7794 9.992C56.8194 9.32 55.8114 8.872 54.7554 8.648C53.7314 8.392 52.6754 8.264 51.5874 8.264C48.9954 8.264 46.9154 9.048 45.3474 10.616C43.8114 12.184 43.0434 14.472 43.0434 17.48C43.0434 18.024 43.0434 18.6 43.0434 19.208C43.0754 19.784 43.1394 20.376 43.2354 20.984L40.8354 19.016C41.4754 17.832 42.2434 16.84 43.1394 16.04C44.0674 15.24 45.1554 14.632 46.4034 14.216C47.6834 13.8 49.1074 13.592 50.6754 13.592C52.7874 13.592 54.7074 14.04 56.4354 14.936C58.1954 15.8 59.6034 17.032 60.6594 18.632C61.7154 20.2 62.2434 22.056 62.2434 24.2C62.2434 26.536 61.6514 28.568 60.4674 30.296C59.2834 31.992 57.6994 33.32 55.7154 34.28C53.7314 35.208 51.5074 35.672 49.0434 35.672ZM48.4674 28.904C49.3634 28.904 50.1474 28.728 50.8194 28.376C51.5234 28.024 52.0674 27.528 52.4514 26.888C52.8354 26.248 53.0274 25.496 53.0274 24.632C53.0274 23.352 52.5954 22.328 51.7314 21.56C50.8994 20.792 49.7954 20.408 48.4194 20.408C47.4914 20.408 46.6754 20.584 45.9714 20.936C45.2994 21.288 44.7554 21.784 44.3394 22.424C43.9554 23.064 43.7634 23.816 43.7634 24.68C43.7634 25.512 43.9554 26.248 44.3394 26.888C44.7234 27.496 45.2674 27.992 45.9714 28.376C46.6754 28.728 47.5074 28.904 48.4674 28.904Z" fill="#1178B2" fill-opacity="0.5"/>
</svg>
