<svg width="45" height="57" viewBox="0 0 45 57" fill="none" xmlns="http://www.w3.org/2000/svg">
<path d="M22.257 56.7457C18.1021 56.7457 14.4178 56.0355 11.2041 54.6151C8.00803 53.1768 5.48673 51.1971 3.64014 48.6758C1.79355 46.1545 0.852495 43.2514 0.816983 39.9666H14.0805C14.1337 41.1562 14.5155 42.2127 15.2257 43.136C15.9359 44.0415 16.9036 44.7518 18.1288 45.2667C19.3539 45.7816 20.7477 46.0391 22.3102 46.0391C23.8727 46.0391 25.2488 45.7638 26.4384 45.2134C27.6458 44.6452 28.5869 43.8729 29.2616 42.8963C29.9363 41.902 30.2648 40.7656 30.247 39.4872C30.2648 38.2088 29.9008 37.0724 29.1551 36.0781C28.4093 35.0838 27.3528 34.3114 25.9857 33.761C24.6362 33.2106 23.0382 32.9354 21.1916 32.9354H15.8916V23.5604H21.1916C22.8074 23.5604 24.2279 23.294 25.453 22.7614C26.6959 22.2287 27.6636 21.483 28.356 20.5241C29.0485 19.5476 29.3859 18.429 29.3681 17.1683C29.3859 15.9432 29.0929 14.869 28.4892 13.9457C27.9033 13.0046 27.0776 12.2766 26.0123 11.7617C24.9647 11.2468 23.7484 10.9893 22.3635 10.9893C20.9075 10.9893 19.5847 11.2468 18.3951 11.7617C17.2232 12.2766 16.2911 13.0046 15.5986 13.9457C14.9061 14.8867 14.5421 15.9787 14.5066 17.2216H1.90896C1.94447 13.9723 2.85001 11.1136 4.62558 8.6456C6.40115 6.1598 8.81592 4.21555 11.8699 2.81285C14.9416 1.41015 18.4395 0.708805 22.3635 0.708805C26.2698 0.708805 29.7055 1.3924 32.6707 2.75959C35.6359 4.12677 37.9441 5.99112 39.5954 8.35263C41.2467 10.6964 42.0723 13.3509 42.0723 16.3161C42.0901 19.3878 41.0869 21.918 39.0627 23.9066C37.0563 25.8952 34.4729 27.1204 31.3124 27.582V28.0082C35.5382 28.5053 38.7254 29.8725 40.8738 32.1097C43.04 34.3469 44.1142 37.1435 44.0965 40.4993C44.0965 43.6598 43.1643 46.4652 41.2999 48.9155C39.4533 51.348 36.8788 53.2656 33.5762 54.6683C30.2914 56.0533 26.5183 56.7457 22.257 56.7457Z" fill="url(#paint0_linear_1437_33674)"/>
<defs>
<linearGradient id="paint0_linear_1437_33674" x1="22.5" y1="-17" x2="103.679" y2="44.9646" gradientUnits="userSpaceOnUse">
<stop stop-color="#8BD7DC"/>
<stop offset="1" stop-color="#1246A9"/>
</linearGradient>
</defs>
</svg>
