<svg width="59" height="72" viewBox="0 0 59 72" fill="none" xmlns="http://www.w3.org/2000/svg">
<path d="M27.9482 36.0141C27.1799 33.7641 27.1953 29.4187 27.6409 29.4187C28.9315 29.4187 28.8086 34.6078 27.9482 36.0141ZM27.687 42.6516C26.5039 45.4922 25.0289 48.7406 23.3234 51.4688C26.1352 50.4844 29.3156 49.05 32.9878 48.3891C31.0365 47.0391 29.162 45.0984 27.687 42.6516ZM13.2289 60.2016C13.2289 60.3141 15.257 59.4422 18.5911 54.5484C17.5617 55.4344 14.1201 57.9938 13.2289 60.2016ZM38.1042 22.5H59V68.625C59 70.4953 57.356 72 55.3125 72H3.6875C1.64401 72 0 70.4953 0 68.625V3.375C0 1.50469 1.64401 0 3.6875 0H34.4167V19.125C34.4167 20.9812 36.076 22.5 38.1042 22.5ZM36.875 46.6594C33.8021 44.9437 31.7586 42.5812 30.3143 39.0938C31.0057 36.4922 32.0966 32.5406 31.2669 30.0656C30.5448 25.9313 24.7523 26.3391 23.9227 29.1094C23.1544 31.6828 23.8612 35.3109 25.1672 39.9375C23.3849 43.8187 20.7576 49.0219 18.8984 52.0031C18.8831 52.0031 18.8831 52.0172 18.8677 52.0172C14.7039 53.9719 7.55938 58.275 10.494 61.5797C11.3544 62.55 12.9523 62.9859 13.7974 62.9859C16.5477 62.9859 19.2826 60.4547 23.1852 54.2953C27.1492 53.1 31.4974 51.6094 35.3232 51.0328C38.6573 52.6922 42.5599 53.775 45.1565 53.775C49.643 53.775 49.9503 49.275 48.1833 47.6719C46.0477 45.7594 39.8404 46.3078 36.875 46.6594ZM57.9245 14.7656L42.8672 0.984375C42.1758 0.351562 41.2385 0 40.2552 0H39.3333V18H59V17.1422C59 16.2563 58.6159 15.3984 57.9245 14.7656ZM46.5393 50.6672C47.1693 50.2875 46.1552 48.9937 39.9633 49.4016C45.6635 51.6234 46.5393 50.6672 46.5393 50.6672Z" fill="url(#paint0_linear_1437_34090)"/>
<defs>
<linearGradient id="paint0_linear_1437_34090" x1="29.5" y1="2.21999e-06" x2="95.687" y2="73.8693" gradientUnits="userSpaceOnUse">
<stop stop-color="#8BD7DC"/>
<stop offset="1" stop-color="#1246A9"/>
</linearGradient>
</defs>
</svg>
