<svg width="155" height="32" viewBox="0 0 155 32" fill="none" xmlns="http://www.w3.org/2000/svg">
<path d="M2.088 22.724V17.468L17.856 11.888V14.912L2.088 9.332V4.076L19.836 10.628V16.172L2.088 22.724ZM31.9815 26.504C30.2535 26.504 28.5135 26.288 26.7615 25.856C25.0095 25.424 23.4975 24.812 22.2255 24.02L24.7815 18.656C25.8135 19.328 26.9295 19.844 28.1295 20.204C29.3535 20.564 30.5655 20.744 31.7655 20.744C32.9655 20.744 33.9375 20.516 34.6815 20.06C35.4255 19.58 35.7975 18.92 35.7975 18.08C35.7975 17.576 35.6535 17.132 35.3655 16.748C35.0775 16.34 34.5855 16.04 33.8895 15.848C33.1935 15.632 32.1975 15.524 30.9015 15.524H24.0615L25.3215 0.799998H41.3775V6.308H27.8415L31.4775 3.176L30.6495 13.112L27.0135 9.98H32.5935C35.0895 9.98 37.0935 10.34 38.6055 11.06C40.1175 11.756 41.2215 12.704 41.9175 13.904C42.6135 15.08 42.9615 16.412 42.9615 17.9C42.9615 19.388 42.5655 20.792 41.7735 22.112C41.0055 23.408 39.8175 24.464 38.2095 25.28C36.6015 26.096 34.5255 26.504 31.9815 26.504ZM45.2447 31.652L47.9447 22.292L48.9167 26.18C47.7167 26.18 46.7327 25.832 45.9647 25.136C45.1967 24.416 44.8127 23.456 44.8127 22.256C44.8127 21.008 45.1967 20.024 45.9647 19.304C46.7567 18.584 47.7407 18.224 48.9167 18.224C50.0927 18.224 51.0647 18.596 51.8327 19.34C52.6007 20.06 52.9847 21.032 52.9847 22.256C52.9847 22.592 52.9607 22.928 52.9127 23.264C52.8647 23.6 52.7567 24.008 52.5887 24.488C52.4207 24.968 52.1567 25.604 51.7967 26.396L49.5287 31.652H45.2447ZM64.044 26.504C62.316 26.504 60.576 26.288 58.824 25.856C57.072 25.424 55.56 24.812 54.288 24.02L56.844 18.656C57.876 19.328 58.992 19.844 60.192 20.204C61.416 20.564 62.628 20.744 63.828 20.744C65.028 20.744 66 20.516 66.744 20.06C67.488 19.58 67.86 18.92 67.86 18.08C67.86 17.576 67.716 17.132 67.428 16.748C67.14 16.34 66.648 16.04 65.952 15.848C65.256 15.632 64.26 15.524 62.964 15.524H56.124L57.384 0.799998H73.44V6.308H59.904L63.54 3.176L62.712 13.112L59.076 9.98H64.656C67.152 9.98 69.156 10.34 70.668 11.06C72.18 11.756 73.284 12.704 73.98 13.904C74.676 15.08 75.024 16.412 75.024 17.9C75.024 19.388 74.628 20.792 73.836 22.112C73.068 23.408 71.88 24.464 70.272 25.28C68.664 26.096 66.588 26.504 64.044 26.504Z" fill="#1178B2" fill-opacity="0.5"/>
<path d="M88.4 20V6H95.56C97.4 6 98.7733 6.34 99.68 7.02C100.587 7.68667 101.04 8.56667 101.04 9.66C101.04 10.38 100.847 11.0133 100.46 11.56C100.087 12.0933 99.5533 12.52 98.86 12.84C98.18 13.1467 97.3667 13.3 96.42 13.3L96.82 12.34C97.8067 12.34 98.6667 12.4933 99.4 12.8C100.133 13.0933 100.7 13.5267 101.1 14.1C101.513 14.66 101.72 15.3467 101.72 16.16C101.72 17.3733 101.227 18.32 100.24 19C99.2667 19.6667 97.84 20 95.96 20H88.4ZM92.32 17.14H95.64C96.32 17.14 96.8333 17.0267 97.18 16.8C97.54 16.56 97.72 16.2 97.72 15.72C97.72 15.24 97.54 14.8867 97.18 14.66C96.8333 14.42 96.32 14.3 95.64 14.3H92.04V11.56H95.04C95.7067 11.56 96.2067 11.4467 96.54 11.22C96.8733 10.9933 97.04 10.6533 97.04 10.2C97.04 9.74667 96.8733 9.41333 96.54 9.2C96.2067 8.97333 95.7067 8.86 95.04 8.86H92.32V17.14ZM103.591 20V9.16H107.391V20H103.591ZM105.491 7.96C104.798 7.96 104.238 7.76667 103.811 7.38C103.384 6.99333 103.171 6.51333 103.171 5.94C103.171 5.36667 103.384 4.88667 103.811 4.5C104.238 4.11333 104.798 3.92 105.491 3.92C106.184 3.92 106.744 4.10667 107.171 4.48C107.598 4.84 107.811 5.30667 107.811 5.88C107.811 6.48 107.598 6.98 107.171 7.38C106.758 7.76667 106.198 7.96 105.491 7.96ZM109.861 20V5.16H113.661V20H109.861ZM116.13 20V5.16H119.93V20H116.13ZM122.4 20V9.16H126.2V20H122.4ZM124.3 7.96C123.606 7.96 123.046 7.76667 122.62 7.38C122.193 6.99333 121.98 6.51333 121.98 5.94C121.98 5.36667 122.193 4.88667 122.62 4.5C123.046 4.11333 123.606 3.92 124.3 3.92C124.993 3.92 125.553 4.10667 125.98 4.48C126.406 4.84 126.62 5.30667 126.62 5.88C126.62 6.48 126.406 6.98 125.98 7.38C125.566 7.76667 125.006 7.96 124.3 7.96ZM134.109 20.18C132.923 20.18 131.869 19.94 130.949 19.46C130.029 18.98 129.303 18.32 128.769 17.48C128.249 16.6267 127.989 15.6533 127.989 14.56C127.989 13.4667 128.249 12.5 128.769 11.66C129.303 10.82 130.029 10.1667 130.949 9.7C131.869 9.22 132.923 8.98 134.109 8.98C135.296 8.98 136.349 9.22 137.269 9.7C138.203 10.1667 138.929 10.82 139.449 11.66C139.969 12.5 140.229 13.4667 140.229 14.56C140.229 15.6533 139.969 16.6267 139.449 17.48C138.929 18.32 138.203 18.98 137.269 19.46C136.349 19.94 135.296 20.18 134.109 20.18ZM134.109 17.16C134.549 17.16 134.936 17.06 135.269 16.86C135.616 16.66 135.889 16.3667 136.089 15.98C136.289 15.58 136.389 15.1067 136.389 14.56C136.389 14.0133 136.289 13.5533 136.089 13.18C135.889 12.7933 135.616 12.5 135.269 12.3C134.936 12.1 134.549 12 134.109 12C133.683 12 133.296 12.1 132.949 12.3C132.616 12.5 132.343 12.7933 132.129 13.18C131.929 13.5533 131.829 14.0133 131.829 14.56C131.829 15.1067 131.929 15.58 132.129 15.98C132.343 16.3667 132.616 16.66 132.949 16.86C133.296 17.06 133.683 17.16 134.109 17.16ZM149.05 8.98C149.89 8.98 150.65 9.15333 151.33 9.5C152.01 9.83333 152.543 10.3533 152.93 11.06C153.33 11.7667 153.53 12.68 153.53 13.8V20H149.73V14.42C149.73 13.6467 149.57 13.0867 149.25 12.74C148.943 12.38 148.51 12.2 147.95 12.2C147.55 12.2 147.183 12.2933 146.85 12.48C146.516 12.6533 146.256 12.9267 146.07 13.3C145.883 13.6733 145.79 14.16 145.79 14.76V20H141.99V9.16H145.61V12.24L144.91 11.34C145.323 10.5533 145.89 9.96667 146.61 9.58C147.33 9.18 148.143 8.98 149.05 8.98Z" fill="#1178B2" fill-opacity="0.5"/>
</svg>
