<svg width="218" height="137" viewBox="0 0 218 137" fill="none" xmlns="http://www.w3.org/2000/svg">
<circle cx="214.936" cy="16.692" r="3.06336" fill="#2A79C2"/>
<circle cx="200.302" cy="16.692" r="3.06336" fill="#2A79C2"/>
<circle cx="185.665" cy="16.6922" r="3.06336" fill="#2A79C2"/>
<circle cx="214.936" cy="31.3287" r="3.06336" fill="#2A79C2"/>
<circle cx="200.302" cy="31.3287" r="3.06336" fill="#2A79C2"/>
<circle cx="185.665" cy="31.3287" r="3.06336" fill="#2A79C2"/>
<circle cx="214.936" cy="45.9652" r="3.06336" fill="#2A79C2"/>
<circle cx="200.302" cy="45.9652" r="3.06336" fill="#2A79C2"/>
<circle cx="185.665" cy="45.9653" r="3.06336" fill="#2A79C2"/>
<circle cx="169.507" cy="16.692" r="3.06336" fill="#2A79C2"/>
<circle cx="154.872" cy="16.692" r="3.06336" fill="#2A79C2"/>
<circle cx="140.235" cy="16.6922" r="3.06336" fill="#2A79C2"/>
<circle cx="169.507" cy="31.3287" r="3.06336" fill="#2A79C2"/>
<circle cx="154.872" cy="31.3287" r="3.06336" fill="#2A79C2"/>
<circle cx="140.235" cy="31.3287" r="3.06336" fill="#2A79C2"/>
<circle cx="214.936" cy="3.59974" r="3.06336" fill="#2A79C2"/>
<circle cx="200.302" cy="3.59974" r="3.06336" fill="#2A79C2"/>
<circle cx="185.665" cy="3.59974" r="3.06336" fill="#2A79C2"/>
<circle cx="169.507" cy="3.59974" r="3.06336" fill="#2A79C2"/>
<circle cx="154.872" cy="3.59974" r="3.06336" fill="#2A79C2"/>
<circle cx="140.235" cy="3.59974" r="3.06336" fill="#2A79C2"/>
<circle cx="169.507" cy="45.9652" r="3.06336" fill="#2A79C2"/>
<circle cx="154.872" cy="45.9652" r="3.06336" fill="#2A79C2"/>
<circle cx="140.235" cy="45.9653" r="3.06336" fill="#2A79C2"/>
<circle cx="214.936" cy="60.351" r="3.06336" fill="#2A79C2"/>
<circle cx="200.302" cy="60.351" r="3.06336" fill="#2A79C2"/>
<circle cx="185.665" cy="60.3508" r="3.06336" fill="#2A79C2"/>
<circle cx="214.936" cy="74.9874" r="3.06336" fill="#2A79C2"/>
<circle cx="200.302" cy="74.9874" r="3.06336" fill="#2A79C2"/>
<circle cx="185.665" cy="74.9874" r="3.06336" fill="#2A79C2"/>
<circle cx="214.936" cy="89.6242" r="3.06336" fill="#2A79C2"/>
<circle cx="200.302" cy="89.6242" r="3.06336" fill="#2A79C2"/>
<circle cx="185.665" cy="89.624" r="3.06336" fill="#2A79C2"/>
<circle cx="169.507" cy="60.351" r="3.06336" fill="#2A79C2"/>
<circle cx="154.872" cy="60.351" r="3.06336" fill="#2A79C2"/>
<circle cx="140.235" cy="60.3508" r="3.06336" fill="#2A79C2"/>
<circle cx="169.507" cy="74.9874" r="3.06336" fill="#2A79C2"/>
<circle cx="154.872" cy="74.9874" r="3.06336" fill="#2A79C2"/>
<circle cx="140.235" cy="74.9874" r="3.06336" fill="#2A79C2"/>
<circle cx="169.507" cy="89.6242" r="3.06336" fill="#2A79C2"/>
<circle cx="154.872" cy="89.6242" r="3.06336" fill="#2A79C2"/>
<circle cx="140.235" cy="89.624" r="3.06336" fill="#2A79C2"/>
<circle cx="214.936" cy="104.009" r="3.06336" fill="#2A79C2"/>
<circle cx="200.302" cy="104.009" r="3.06336" fill="#2A79C2"/>
<circle cx="185.665" cy="104.009" r="3.06336" fill="#2A79C2"/>
<circle cx="214.936" cy="118.646" r="3.06336" fill="#2A79C2"/>
<circle cx="200.302" cy="118.646" r="3.06336" fill="#2A79C2"/>
<circle cx="185.665" cy="118.646" r="3.06336" fill="#2A79C2"/>
<circle cx="214.936" cy="133.283" r="3.06336" fill="#2A79C2"/>
<circle cx="200.302" cy="133.283" r="3.06336" fill="#2A79C2"/>
<circle cx="185.665" cy="133.283" r="3.06336" fill="#2A79C2"/>
<circle cx="169.507" cy="104.009" r="3.06336" fill="#2A79C2"/>
<circle cx="154.872" cy="104.009" r="3.06336" fill="#2A79C2"/>
<circle cx="140.235" cy="104.009" r="3.06336" fill="#2A79C2"/>
<circle cx="169.507" cy="118.646" r="3.06336" fill="#2A79C2"/>
<circle cx="154.872" cy="118.646" r="3.06336" fill="#2A79C2"/>
<circle cx="140.235" cy="118.646" r="3.06336" fill="#2A79C2"/>
<circle cx="169.507" cy="133.283" r="3.06336" fill="#2A79C2"/>
<circle cx="154.872" cy="133.283" r="3.06336" fill="#2A79C2"/>
<circle cx="140.235" cy="133.283" r="3.06336" fill="#2A79C2"/>
<circle cx="33.2216" cy="16.2152" r="3.06336" fill="#2A79C2"/>
<circle cx="18.5868" cy="16.2152" r="3.06336" fill="#2A79C2"/>
<circle cx="3.95008" cy="16.2151" r="3.06336" fill="#2A79C2"/>
<circle cx="33.2216" cy="30.8517" r="3.06336" fill="#2A79C2"/>
<circle cx="18.5868" cy="30.8517" r="3.06336" fill="#2A79C2"/>
<circle cx="3.95008" cy="30.8517" r="3.06336" fill="#2A79C2"/>
<circle cx="33.2216" cy="3.12257" r="3.06336" fill="#2A79C2"/>
<circle cx="18.5868" cy="3.12257" r="3.06336" fill="#2A79C2"/>
<circle cx="3.95008" cy="3.12269" r="3.06336" fill="#2A79C2"/>
<circle cx="33.2216" cy="45.4884" r="3.06336" fill="#2A79C2"/>
<circle cx="18.5868" cy="45.4884" r="3.06336" fill="#2A79C2"/>
<circle cx="3.95008" cy="45.4883" r="3.06336" fill="#2A79C2"/>
<circle cx="33.2216" cy="59.8737" r="3.06336" fill="#2A79C2"/>
<circle cx="18.5868" cy="59.8737" r="3.06336" fill="#2A79C2"/>
<circle cx="3.95008" cy="59.8737" r="3.06336" fill="#2A79C2"/>
<circle cx="33.2216" cy="74.5101" r="3.06336" fill="#2A79C2"/>
<circle cx="18.5868" cy="74.5101" r="3.06336" fill="#2A79C2"/>
<circle cx="3.95008" cy="74.5103" r="3.06336" fill="#2A79C2"/>
<circle cx="33.2216" cy="89.1469" r="3.06336" fill="#2A79C2"/>
<circle cx="18.5868" cy="89.1469" r="3.06336" fill="#2A79C2"/>
<circle cx="3.95008" cy="89.1469" r="3.06336" fill="#2A79C2"/>
<circle cx="33.2216" cy="103.532" r="3.06336" fill="#2A79C2"/>
<circle cx="18.5868" cy="103.532" r="3.06336" fill="#2A79C2"/>
<circle cx="3.95008" cy="103.532" r="3.06336" fill="#2A79C2"/>
<circle cx="33.2216" cy="118.169" r="3.06336" fill="#2A79C2"/>
<circle cx="18.5868" cy="118.169" r="3.06336" fill="#2A79C2"/>
<circle cx="3.95008" cy="118.169" r="3.06336" fill="#2A79C2"/>
<circle cx="33.2216" cy="132.806" r="3.06336" fill="#2A79C2"/>
<circle cx="18.5868" cy="132.806" r="3.06336" fill="#2A79C2"/>
<circle cx="3.95008" cy="132.806" r="3.06336" fill="#2A79C2"/>
<circle cx="124.079" cy="16.8053" r="3.06336" fill="#2A79C2"/>
<circle cx="109.444" cy="16.8053" r="3.06336" fill="#2A79C2"/>
<circle cx="94.8075" cy="16.8052" r="3.06336" fill="#2A79C2"/>
<circle cx="124.079" cy="31.4418" r="3.06336" fill="#2A79C2"/>
<circle cx="109.444" cy="31.4418" r="3.06336" fill="#2A79C2"/>
<circle cx="94.8075" cy="31.4418" r="3.06336" fill="#2A79C2"/>
<circle cx="124.079" cy="46.0785" r="3.06336" fill="#2A79C2"/>
<circle cx="109.444" cy="46.0785" r="3.06336" fill="#2A79C2"/>
<circle cx="94.8075" cy="46.0784" r="3.06336" fill="#2A79C2"/>
<circle cx="78.6493" cy="16.8053" r="3.06336" fill="#2A79C2"/>
<circle cx="64.0145" cy="16.8053" r="3.06336" fill="#2A79C2"/>
<circle cx="49.3778" cy="16.8052" r="3.06336" fill="#2A79C2"/>
<circle cx="78.6493" cy="31.4418" r="3.06336" fill="#2A79C2"/>
<circle cx="64.0145" cy="31.4418" r="3.06336" fill="#2A79C2"/>
<circle cx="49.3778" cy="31.4418" r="3.06336" fill="#2A79C2"/>
<circle cx="124.079" cy="3.71253" r="3.06336" fill="#2A79C2"/>
<circle cx="109.444" cy="3.71253" r="3.06336" fill="#2A79C2"/>
<circle cx="94.8075" cy="3.71253" r="3.06336" fill="#2A79C2"/>
<circle cx="78.6493" cy="3.71253" r="3.06336" fill="#2A79C2"/>
<circle cx="64.0145" cy="3.71253" r="3.06336" fill="#2A79C2"/>
<circle cx="49.3778" cy="3.71253" r="3.06336" fill="#2A79C2"/>
<circle cx="78.6493" cy="46.0785" r="3.06336" fill="#2A79C2"/>
<circle cx="64.0145" cy="46.0785" r="3.06336" fill="#2A79C2"/>
<circle cx="49.3778" cy="46.0784" r="3.06336" fill="#2A79C2"/>
<circle cx="124.079" cy="60.4638" r="3.06336" fill="#2A79C2"/>
<circle cx="109.444" cy="60.4638" r="3.06336" fill="#2A79C2"/>
<circle cx="94.8075" cy="60.4638" r="3.06336" fill="#2A79C2"/>
<circle cx="124.079" cy="75.1003" r="3.06336" fill="#2A79C2"/>
<circle cx="109.444" cy="75.1003" r="3.06336" fill="#2A79C2"/>
<circle cx="94.8075" cy="75.1005" r="3.06336" fill="#2A79C2"/>
<circle cx="124.079" cy="89.7371" r="3.06336" fill="#2A79C2"/>
<circle cx="109.444" cy="89.7371" r="3.06336" fill="#2A79C2"/>
<circle cx="94.8075" cy="89.7369" r="3.06336" fill="#2A79C2"/>
<circle cx="78.6493" cy="60.4638" r="3.06336" fill="#2A79C2"/>
<circle cx="64.0145" cy="60.4638" r="3.06336" fill="#2A79C2"/>
<circle cx="49.3778" cy="60.4638" r="3.06336" fill="#2A79C2"/>
<circle cx="78.6493" cy="75.1003" r="3.06336" fill="#2A79C2"/>
<circle cx="64.0145" cy="75.1003" r="3.06336" fill="#2A79C2"/>
<circle cx="49.3778" cy="75.1005" r="3.06336" fill="#2A79C2"/>
<circle cx="78.6493" cy="89.7371" r="3.06336" fill="#2A79C2"/>
<circle cx="64.0145" cy="89.7371" r="3.06336" fill="#2A79C2"/>
<circle cx="49.3778" cy="89.7369" r="3.06336" fill="#2A79C2"/>
<circle cx="124.079" cy="104.122" r="3.06336" fill="#2A79C2"/>
<circle cx="109.444" cy="104.122" r="3.06336" fill="#2A79C2"/>
<circle cx="94.8075" cy="104.122" r="3.06336" fill="#2A79C2"/>
<circle cx="124.079" cy="118.759" r="3.06336" fill="#2A79C2"/>
<circle cx="109.444" cy="118.759" r="3.06336" fill="#2A79C2"/>
<circle cx="94.8075" cy="118.759" r="3.06336" fill="#2A79C2"/>
<circle cx="124.079" cy="133.396" r="3.06336" fill="#2A79C2"/>
<circle cx="109.444" cy="133.396" r="3.06336" fill="#2A79C2"/>
<circle cx="94.8075" cy="133.396" r="3.06336" fill="#2A79C2"/>
<circle cx="78.6493" cy="104.122" r="3.06336" fill="#2A79C2"/>
<circle cx="64.0145" cy="104.122" r="3.06336" fill="#2A79C2"/>
<circle cx="49.3778" cy="104.122" r="3.06336" fill="#2A79C2"/>
<circle cx="78.6493" cy="118.759" r="3.06336" fill="#2A79C2"/>
<circle cx="64.0145" cy="118.759" r="3.06336" fill="#2A79C2"/>
<circle cx="49.3778" cy="118.759" r="3.06336" fill="#2A79C2"/>
<circle cx="78.6493" cy="133.396" r="3.06336" fill="#2A79C2"/>
<circle cx="64.0145" cy="133.396" r="3.06336" fill="#2A79C2"/>
<circle cx="49.3778" cy="133.396" r="3.06336" fill="#2A79C2"/>
</svg>
