<svg width="61" height="19" viewBox="0 0 61 19" fill="none" xmlns="http://www.w3.org/2000/svg">
<path d="M0.392 15.816V12.312L10.904 8.592V10.608L0.392 6.888V3.384L12.224 7.752V11.448L0.392 15.816ZM20.057 18.336C18.889 18.336 17.721 18.192 16.553 17.904C15.401 17.616 14.393 17.208 13.529 16.68L15.257 13.104C15.929 13.552 16.673 13.896 17.489 14.136C18.321 14.376 19.129 14.496 19.913 14.496C20.729 14.496 21.377 14.344 21.857 14.04C22.337 13.736 22.577 13.304 22.577 12.744C22.577 12.248 22.377 11.856 21.977 11.568C21.577 11.264 20.921 11.112 20.009 11.112H18.017V8.112L22.529 3.24L22.985 4.872H14.393V1.2H26.537V4.176L22.025 9.048L19.697 7.728H20.993C23.089 7.728 24.673 8.2 25.745 9.144C26.833 10.072 27.377 11.272 27.377 12.744C27.377 13.704 27.113 14.608 26.585 15.456C26.073 16.304 25.281 17 24.209 17.544C23.137 18.072 21.753 18.336 20.057 18.336ZM36.3179 18.336C34.8779 18.336 33.5979 17.992 32.4779 17.304C31.3739 16.616 30.5019 15.624 29.8619 14.328C29.2219 13.032 28.9019 11.456 28.9019 9.6C28.9019 7.744 29.2219 6.168 29.8619 4.872C30.5019 3.576 31.3739 2.584 32.4779 1.896C33.5979 1.208 34.8779 0.863999 36.3179 0.863999C37.7419 0.863999 39.0059 1.208 40.1099 1.896C41.2299 2.584 42.1099 3.576 42.7499 4.872C43.3899 6.168 43.7099 7.744 43.7099 9.6C43.7099 11.456 43.3899 13.032 42.7499 14.328C42.1099 15.624 41.2299 16.616 40.1099 17.304C39.0059 17.992 37.7419 18.336 36.3179 18.336ZM36.3179 14.448C36.8299 14.448 37.2779 14.288 37.6619 13.968C38.0619 13.648 38.3739 13.136 38.5979 12.432C38.8219 11.712 38.9339 10.768 38.9339 9.6C38.9339 8.416 38.8219 7.472 38.5979 6.768C38.3739 6.064 38.0619 5.552 37.6619 5.232C37.2779 4.912 36.8299 4.752 36.3179 4.752C35.8059 4.752 35.3499 4.912 34.9499 5.232C34.5659 5.552 34.2539 6.064 34.0139 6.768C33.7899 7.472 33.6779 8.416 33.6779 9.6C33.6779 10.768 33.7899 11.712 34.0139 12.432C34.2539 13.136 34.5659 13.648 34.9499 13.968C35.3499 14.288 35.8059 14.448 36.3179 14.448ZM52.7476 18.336C51.3076 18.336 50.0276 17.992 48.9076 17.304C47.8036 16.616 46.9316 15.624 46.2916 14.328C45.6516 13.032 45.3316 11.456 45.3316 9.6C45.3316 7.744 45.6516 6.168 46.2916 4.872C46.9316 3.576 47.8036 2.584 48.9076 1.896C50.0276 1.208 51.3076 0.863999 52.7476 0.863999C54.1716 0.863999 55.4356 1.208 56.5396 1.896C57.6596 2.584 58.5396 3.576 59.1796 4.872C59.8196 6.168 60.1396 7.744 60.1396 9.6C60.1396 11.456 59.8196 13.032 59.1796 14.328C58.5396 15.624 57.6596 16.616 56.5396 17.304C55.4356 17.992 54.1716 18.336 52.7476 18.336ZM52.7476 14.448C53.2596 14.448 53.7076 14.288 54.0916 13.968C54.4916 13.648 54.8036 13.136 55.0276 12.432C55.2516 11.712 55.3636 10.768 55.3636 9.6C55.3636 8.416 55.2516 7.472 55.0276 6.768C54.8036 6.064 54.4916 5.552 54.0916 5.232C53.7076 4.912 53.2596 4.752 52.7476 4.752C52.2356 4.752 51.7796 4.912 51.3796 5.232C50.9956 5.552 50.6836 6.064 50.4436 6.768C50.2196 7.472 50.1076 8.416 50.1076 9.6C50.1076 10.768 50.2196 11.712 50.4436 12.432C50.6836 13.136 50.9956 13.648 51.3796 13.968C51.7796 14.288 52.2356 14.448 52.7476 14.448Z" fill="#1178B2" fill-opacity="0.5"/>
</svg>
