<svg width="123" height="16" viewBox="0 0 123 16" fill="none" xmlns="http://www.w3.org/2000/svg">
<path d="M0.66 15V0.999999H3.9V15H0.66ZM7.2225 15V0.999999H9.9025L18.1625 11.08H16.8625V0.999999H20.0625V15H17.4025L9.1225 4.92H10.4225V15H7.2225ZM23.3748 15V0.999999H26.0548L34.3148 11.08H33.0148V0.999999H36.2148V15H33.5548L25.2748 4.92H26.5748V15H23.3748ZM46.3272 15.24C45.2205 15.24 44.1939 15.06 43.2472 14.7C42.3139 14.34 41.5005 13.8333 40.8072 13.18C40.1272 12.5267 39.5939 11.76 39.2072 10.88C38.8339 10 38.6472 9.04 38.6472 8C38.6472 6.96 38.8339 6 39.2072 5.12C39.5939 4.24 40.1339 3.47333 40.8272 2.82C41.5205 2.16667 42.3339 1.66 43.2672 1.3C44.2005 0.939999 45.2139 0.76 46.3072 0.76C47.4139 0.76 48.4272 0.939999 49.3472 1.3C50.2805 1.66 51.0872 2.16667 51.7672 2.82C52.4605 3.47333 53.0005 4.24 53.3872 5.12C53.7739 5.98667 53.9672 6.94667 53.9672 8C53.9672 9.04 53.7739 10.0067 53.3872 10.9C53.0005 11.78 52.4605 12.5467 51.7672 13.2C51.0872 13.84 50.2805 14.34 49.3472 14.7C48.4272 15.06 47.4205 15.24 46.3272 15.24ZM46.3072 12.48C46.9339 12.48 47.5072 12.3733 48.0272 12.16C48.5605 11.9467 49.0272 11.64 49.4272 11.24C49.8272 10.84 50.1339 10.3667 50.3472 9.82C50.5739 9.27333 50.6872 8.66667 50.6872 8C50.6872 7.33333 50.5739 6.72667 50.3472 6.18C50.1339 5.63333 49.8272 5.16 49.4272 4.76C49.0405 4.36 48.5805 4.05333 48.0472 3.84C47.5139 3.62667 46.9339 3.52 46.3072 3.52C45.6805 3.52 45.1005 3.62667 44.5672 3.84C44.0472 4.05333 43.5872 4.36 43.1872 4.76C42.7872 5.16 42.4739 5.63333 42.2472 6.18C42.0339 6.72667 41.9272 7.33333 41.9272 8C41.9272 8.65333 42.0339 9.26 42.2472 9.82C42.4739 10.3667 42.7805 10.84 43.1672 11.24C43.5672 11.64 44.0339 11.9467 44.5672 12.16C45.1005 12.3733 45.6805 12.48 46.3072 12.48ZM56.4022 15V0.999999H59.0822L65.0422 10.88H63.6222L69.4822 0.999999H72.1422L72.1822 15H69.1422L69.1222 5.66H69.6822L65.0022 13.52H63.5422L58.7622 5.66H59.4422V15H56.4022ZM73.6637 15L79.9038 0.999999H83.1038L89.3638 15H85.9638L80.8438 2.64H82.1238L76.9838 15H73.6637ZM76.7837 12L77.6438 9.54H84.8438L85.7238 12H76.7837Z" fill="white"/>
<path d="M91.7763 15.16C91.2429 15.16 90.7829 14.98 90.3963 14.62C90.0229 14.2467 89.8363 13.7733 89.8363 13.2C89.8363 12.6267 90.0229 12.1667 90.3963 11.82C90.7829 11.46 91.2429 11.28 91.7763 11.28C92.3229 11.28 92.7829 11.46 93.1563 11.82C93.5296 12.1667 93.7163 12.6267 93.7163 13.2C93.7163 13.7733 93.5296 14.2467 93.1563 14.62C92.7829 14.98 92.3229 15.16 91.7763 15.16ZM99.4889 15L93.4489 0.999999H96.9489L102.229 13.4H100.169L105.529 0.999999H108.749L102.689 15H99.4889ZM116.462 15.24C115.382 15.24 114.375 15.0667 113.442 14.72C112.522 14.36 111.722 13.8533 111.042 13.2C110.362 12.5467 109.828 11.78 109.442 10.9C109.068 10.02 108.882 9.05333 108.882 8C108.882 6.94667 109.068 5.98 109.442 5.1C109.828 4.22 110.362 3.45333 111.042 2.8C111.735 2.14667 112.542 1.64667 113.462 1.3C114.382 0.939999 115.388 0.76 116.482 0.76C117.695 0.76 118.788 0.973333 119.762 1.4C120.748 1.81333 121.575 2.42667 122.242 3.24L120.162 5.16C119.682 4.61333 119.148 4.20667 118.562 3.94C117.975 3.66 117.335 3.52 116.642 3.52C115.988 3.52 115.388 3.62667 114.842 3.84C114.295 4.05333 113.822 4.36 113.422 4.76C113.022 5.16 112.708 5.63333 112.482 6.18C112.268 6.72667 112.162 7.33333 112.162 8C112.162 8.66667 112.268 9.27333 112.482 9.82C112.708 10.3667 113.022 10.84 113.422 11.24C113.822 11.64 114.295 11.9467 114.842 12.16C115.388 12.3733 115.988 12.48 116.642 12.48C117.335 12.48 117.975 12.3467 118.562 12.08C119.148 11.8 119.682 11.38 120.162 10.82L122.242 12.74C121.575 13.5533 120.748 14.1733 119.762 14.6C118.788 15.0267 117.688 15.24 116.462 15.24Z" fill="#00B1E9"/>
</svg>
