<svg width="52" height="44" viewBox="0 0 52 44" fill="none" xmlns="http://www.w3.org/2000/svg">
<path d="M40.3 19.25C33.8325 19.25 28.6 24.7844 28.6 31.625C28.6 38.4656 33.8325 44 40.3 44C46.7675 44 52 38.4656 52 31.625C52 24.7844 46.7675 19.25 40.3 19.25ZM45.5 32.1664C45.5 32.6219 45.1425 33 44.7119 33H39.7881C39.3575 33 39 32.6219 39 32.1664V25.5836C39 25.1281 39.3575 24.75 39.7881 24.75H40.8119C41.2425 24.75 41.6 25.1281 41.6 25.5836V30.25H44.7119C45.1425 30.25 45.5 30.6281 45.5 31.0836V32.1664ZM26 31.625C26 29.2359 26.5444 26.9758 27.4788 24.9648C26.8288 24.8359 26.1625 24.75 25.48 24.75H24.1231C22.3194 25.6266 20.3125 26.125 18.2 26.125C16.0875 26.125 14.0887 25.6266 12.2769 24.75H10.92C4.89125 24.75 0 29.9234 0 36.3V39.875C0 42.1523 1.74687 44 3.9 44H32.1019C28.4212 41.2586 26 36.7383 26 31.625ZM18.2 22C23.9444 22 28.6 17.0758 28.6 11C28.6 4.92422 23.9444 0 18.2 0C12.4556 0 7.8 4.92422 7.8 11C7.8 17.0758 12.4556 22 18.2 22Z" fill="url(#paint0_linear_1437_33679)"/>
<defs>
<linearGradient id="paint0_linear_1437_33679" x1="26" y1="1.35666e-06" x2="62.4804" y2="58.7194" gradientUnits="userSpaceOnUse">
<stop stop-color="#8BD7DC"/>
<stop offset="1" stop-color="#1246A9"/>
</linearGradient>
</defs>
</svg>
