<svg width="29" height="18" viewBox="0 0 29 18" fill="none" xmlns="http://www.w3.org/2000/svg">
<path d="M3.36 17L9.912 1.952L11.184 3.968H2.664L4.608 1.784V6.56H0.552V0.199999H14.472V3.176L8.544 17H3.36ZM21.4554 17.336C20.2874 17.336 19.1194 17.192 17.9514 16.904C16.7994 16.616 15.7914 16.208 14.9274 15.68L16.6554 12.104C17.3274 12.552 18.0714 12.896 18.8874 13.136C19.7194 13.376 20.5274 13.496 21.3114 13.496C22.1274 13.496 22.7754 13.344 23.2554 13.04C23.7354 12.736 23.9754 12.304 23.9754 11.744C23.9754 11.248 23.7754 10.856 23.3754 10.568C22.9754 10.264 22.3194 10.112 21.4074 10.112H19.4154V7.112L23.9274 2.24L24.3834 3.872H15.7914V0.199999H27.9354V3.176L23.4234 8.048L21.0954 6.728H22.3914C24.4874 6.728 26.0714 7.2 27.1434 8.144C28.2314 9.072 28.7754 10.272 28.7754 11.744C28.7754 12.704 28.5114 13.608 27.9834 14.456C27.4714 15.304 26.6794 16 25.6074 16.544C24.5354 17.072 23.1514 17.336 21.4554 17.336Z" fill="#1178B2" fill-opacity="0.5"/>
</svg>
