<svg width="52" height="52" viewBox="0 0 52 52" fill="none" xmlns="http://www.w3.org/2000/svg">
<path d="M26 0C11.6402 0 0 11.4555 0 25.5873C0 39.7191 11.6402 51.1746 26 51.1746C40.3598 51.1746 52 39.7191 52 25.5873C52 11.4555 40.3598 0 26 0ZM34.6272 36.8952C34.2183 37.2956 33.7895 37.7155 33.4415 38.059C33.128 38.3686 32.9068 38.7503 32.7946 39.164C32.6363 39.748 32.5084 40.3382 32.2945 40.9046L30.4714 45.7383C29.0288 46.0479 27.5359 46.2222 26 46.2222V43.3973C26.1772 42.0952 25.199 39.6562 23.6275 38.1096C22.9985 37.4906 22.6452 36.6507 22.6452 35.7748V32.4721C22.6452 31.2712 21.9878 30.1672 20.9195 29.5864C19.413 28.7661 17.2701 27.6198 15.8023 26.8925C14.5988 26.2961 13.4854 25.5367 12.4842 24.6484L12.4003 24.5741C11.6843 23.9381 11.0487 23.2197 10.5069 22.4343C9.52355 21.0136 7.92161 18.6767 6.88056 17.1579C9.02661 12.4635 12.8941 8.69349 17.6999 6.64548L20.2171 7.8846C21.3326 8.43349 22.6452 7.63595 22.6452 6.40817V5.2423C23.4828 5.10921 24.3352 5.0246 25.2022 4.99262L28.1691 7.91246C28.8244 8.5573 28.8244 9.60246 28.1691 10.2473L27.6774 10.7302L26.5934 11.797C26.2663 12.1189 26.2663 12.642 26.5934 12.9639L27.0851 13.4478C27.4122 13.7697 27.4122 14.2928 27.0851 14.6147L26.2464 15.4401C26.0889 15.5948 25.8755 15.6816 25.653 15.6815H24.7105C24.4924 15.6815 24.2827 15.7651 24.1255 15.9157L23.0855 16.9114C22.958 17.0335 22.8733 17.1924 22.8435 17.365C22.8137 17.5377 22.8404 17.7152 22.9198 17.8719L24.5543 21.0899C24.8331 21.6388 24.4274 22.2847 23.8047 22.2847H23.2134C23.011 22.2847 22.816 22.2125 22.664 22.0825L21.6911 21.2509C21.471 21.0629 21.2049 20.9346 20.919 20.8785C20.6332 20.8224 20.3375 20.8405 20.0609 20.931L16.7931 22.003C16.5436 22.0849 16.3266 22.2419 16.1729 22.4519C16.0191 22.6619 15.9365 22.9142 15.9365 23.173C15.9365 23.6404 16.2049 24.0665 16.6295 24.276L17.7911 24.8475C18.7777 25.3335 19.8659 25.5863 20.9688 25.5863C22.0717 25.5863 23.3371 28.4019 24.3236 28.8879H31.3216C32.2117 28.8879 33.064 29.2356 33.6941 29.8546L35.1294 31.2671C35.7289 31.8574 36.0657 32.6579 36.0656 33.4925C36.0653 34.125 35.9382 34.7512 35.6913 35.3351C35.4445 35.9191 35.0828 36.4492 34.6272 36.8952ZM43.7177 27.4702C43.1107 27.3206 42.5813 26.9544 42.2343 26.4416L40.3493 23.659C40.0735 23.2524 39.9263 22.7745 39.9263 22.2857C39.9263 21.7969 40.0735 21.319 40.3493 20.9125L42.4031 17.8812C42.6463 17.5232 42.9797 17.2322 43.3718 17.0403L44.7326 16.3707C46.15 19.1482 46.9677 22.2723 46.9677 25.5873C46.9677 26.4818 46.8902 27.3578 46.7769 28.2224L43.7177 27.4702Z" fill="url(#paint0_linear_1437_33676)"/>
<defs>
<linearGradient id="paint0_linear_1437_33676" x1="26" y1="1.57787e-06" x2="70.9338" y2="62.1861" gradientUnits="userSpaceOnUse">
<stop stop-color="#8BD7DC"/>
<stop offset="1" stop-color="#1246A9"/>
</linearGradient>
</defs>
</svg>
